<?xml version="1.0" standalone="no"?>
<!DOCTYPE svg PUBLIC "-//W3C//DTD SVG 20010904//EN"
 "http://www.w3.org/TR/2001/REC-SVG-20010904/DTD/svg10.dtd">
<svg version="1.0" xmlns="http://www.w3.org/2000/svg"
 width="2134.000000pt" height="2134.000000pt" viewBox="0 0 2134.000000 2134.000000"
 preserveAspectRatio="xMidYMid meet">
<metadata>
Created by potrace 1.14, written by Peter Selinger 2001-2017
</metadata>
<g transform="translate(0.000000,2134.000000) scale(0.100000,-0.100000)"
fill="#000000" stroke="none">
<path d="M2432 19443 c65 -197 200 -605 299 -908 99 -302 183 -557 186 -565 4
-8 7 -17 8 -20 1 -3 4 -12 8 -20 3 -8 125 -379 272 -825 146 -445 270 -819
275 -830 4 -11 83 -247 174 -525 173 -526 254 -773 756 -2290 552 -1669 730
-2209 927 -2805 107 -324 237 -716 288 -870 103 -310 703 -2125 825 -2495 167
-506 743 -2249 947 -2865 119 -357 248 -749 288 -870 40 -121 206 -623 369
-1115 l295 -895 2236 1 c1230 1 2238 3 2239 5 4 4 -287 895 -304 934 -5 11
-41 119 -80 240 -39 121 -75 229 -79 240 -5 11 -27 76 -49 145 -22 69 -189
575 -370 1125 -182 550 -395 1194 -472 1430 -78 237 -145 439 -150 450 -5 11
-126 378 -270 815 -144 437 -348 1054 -453 1370 -105 316 -192 580 -193 585
-1 6 -43 134 -94 285 -159 480 -507 1534 -829 2510 -172 520 -316 954 -320
965 -5 11 -45 130 -89 265 -190 582 -644 1957 -652 1975 -5 11 -99 297 -210
635 -215 656 -238 724 -250 755 -4 11 -76 227 -159 480 -83 253 -261 793 -396
1200 -134 407 -326 989 -427 1293 l-182 552 -2241 0 -2241 0 118 -357z"/>
<path d="M10330 19794 c0 -3 22 -71 49 -152 27 -81 184 -559 350 -1062 166
-503 307 -928 314 -945 6 -16 12 -34 13 -40 2 -8 183 -556 509 -1540 34 -104
212 -642 395 -1195 183 -553 372 -1124 420 -1270 48 -146 223 -677 389 -1180
166 -503 306 -924 310 -935 5 -11 54 -157 109 -325 55 -168 242 -735 415
-1260 174 -525 352 -1065 397 -1200 44 -135 211 -639 370 -1121 160 -481 290
-879 290 -883 0 -4 6 -22 14 -39 8 -18 64 -185 125 -372 249 -757 693 -2101
701 -2120 9 -20 32 -91 36 -110 1 -5 40 -125 87 -265 47 -140 221 -667 387
-1170 166 -503 313 -946 325 -983 12 -37 25 -70 28 -74 7 -6 2636 -7 2643 0 3
2 -5 36 -18 73 -12 38 -23 71 -23 74 -1 3 -137 417 -304 920 -385 1164 -371
1121 -380 1145 -5 11 -35 103 -68 205 -51 155 -340 1031 -778 2355 -51 154
-231 699 -399 1210 -169 512 -310 937 -313 945 -3 8 -7 20 -9 25 -1 6 -39 120
-84 255 -44 135 -216 655 -381 1155 -165 501 -304 919 -309 930 -4 11 -58 171
-118 355 -187 570 -733 2224 -741 2245 -5 11 -23 65 -40 120 -18 55 -35 109
-40 120 -4 11 -19 56 -33 100 -14 44 -184 557 -376 1140 -193 583 -394 1193
-447 1355 -53 162 -100 304 -105 315 -5 11 -135 405 -290 875 -314 950 -671
2033 -730 2210 l-38 115 -1326 3 c-729 1 -1326 -1 -1326 -4z"/>
</g>
</svg>
