<svg xmlns="http://www.w3.org/2000/svg" viewBox="0 0 85 85"><title>social-ig</title><g id="Layer_2" data-name="Layer 2"><g id="Graphic_Elements" data-name="Graphic Elements"><path d="M42.5,7.658c11.348,0,12.692.043,17.174.247a23.532,23.532,0,0,1,7.891,1.464,13.168,13.168,0,0,1,4.887,3.179,13.168,13.168,0,0,1,3.179,4.887A23.532,23.532,0,0,1,77.1,25.326c.2,4.482.247,5.826.247,17.174S77.3,55.192,77.1,59.674a23.532,23.532,0,0,1-1.464,7.891,14.071,14.071,0,0,1-8.066,8.066A23.532,23.532,0,0,1,59.674,77.1c-4.481.2-5.825.247-17.174.247S29.807,77.3,25.326,77.1a23.532,23.532,0,0,1-7.891-1.464,13.168,13.168,0,0,1-4.887-3.179,13.168,13.168,0,0,1-3.179-4.887,23.506,23.506,0,0,1-1.464-7.891c-.2-4.482-.247-5.826-.247-17.174s.043-12.692.247-17.174a23.506,23.506,0,0,1,1.464-7.891,13.168,13.168,0,0,1,3.179-4.887,13.168,13.168,0,0,1,4.887-3.179,23.532,23.532,0,0,1,7.891-1.464c4.482-.2,5.826-.247,17.174-.247M42.5,0C30.958,0,29.51.049,24.977.256A31.2,31.2,0,0,0,14.661,2.231a20.842,20.842,0,0,0-7.528,4.9,20.829,20.829,0,0,0-4.9,7.528A31.2,31.2,0,0,0,.256,24.977C.049,29.51,0,30.958,0,42.5S.049,55.49.256,60.023A31.2,31.2,0,0,0,2.231,70.339a20.829,20.829,0,0,0,4.9,7.528,20.842,20.842,0,0,0,7.528,4.9,31.2,31.2,0,0,0,10.316,1.975C29.51,84.951,30.958,85,42.5,85s12.99-.049,17.523-.256a31.2,31.2,0,0,0,10.316-1.975,21.73,21.73,0,0,0,12.43-12.43,31.2,31.2,0,0,0,1.975-10.316C84.951,55.49,85,54.042,85,42.5s-.049-12.99-.256-17.523a31.2,31.2,0,0,0-1.975-10.316,20.842,20.842,0,0,0-4.9-7.528,20.842,20.842,0,0,0-7.528-4.9A31.2,31.2,0,0,0,60.023.256C55.49.049,54.042,0,42.5,0Z" fill="#151515"/><path d="M42.5,20.676A21.824,21.824,0,1,0,64.324,42.5,21.824,21.824,0,0,0,42.5,20.676Zm0,35.991A14.167,14.167,0,1,1,56.667,42.5,14.167,14.167,0,0,1,42.5,56.667Z" fill="#151515"/><circle cx="65.187" cy="19.813" r="5.1" fill="#151515"/></g></g></svg>